{
	"patcher" : 	{
		"fileversion" : 1,
		"appversion" : 		{
			"major" : 6,
			"minor" : 1,
			"revision" : 9,
			"architecture" : "x86"
		}
,
		"rect" : [ 25.0, 70.0, 491.0, 357.0 ],
		"bglocked" : 0,
		"openinpresentation" : 0,
		"default_fontsize" : 12.0,
		"default_fontface" : 0,
		"default_fontname" : "Century Gothic",
		"gridonopen" : 0,
		"gridsize" : [ 15.0, 15.0 ],
		"gridsnaponopen" : 0,
		"statusbarvisible" : 2,
		"toolbarvisible" : 1,
		"boxanimatetime" : 200,
		"imprint" : 0,
		"enablehscroll" : 1,
		"enablevscroll" : 1,
		"devicewidth" : 0.0,
		"description" : "",
		"digest" : "",
		"tags" : "",
		"boxes" : [ 			{
				"box" : 				{
					"fontname" : "Century Gothic",
					"fontsize" : 12.0,
					"id" : "obj-13",
					"maxclass" : "flonum",
					"numinlets" : 1,
					"numoutlets" : 2,
					"outlettype" : [ "float", "bang" ],
					"parameter_enable" : 0,
					"patching_rect" : [ 32.0, 275.0, 50.0, 21.0 ]
				}

			}
, 			{
				"box" : 				{
					"fontname" : "Century Gothic",
					"fontsize" : 12.0,
					"id" : "obj-4",
					"maxclass" : "newobj",
					"numinlets" : 1,
					"numoutlets" : 1,
					"outlettype" : [ "" ],
					"patching_rect" : [ 32.0, 232.0, 119.0, 21.0 ],
					"text" : "biotoolkit.respRate"
				}

			}
, 			{
				"box" : 				{
					"fontname" : "Century Gothic",
					"fontsize" : 12.0,
					"id" : "obj-23",
					"maxclass" : "message",
					"numinlets" : 2,
					"numoutlets" : 1,
					"outlettype" : [ "" ],
					"patching_rect" : [ 138.0, 161.0, 40.0, 19.0 ],
					"text" : "clear"
				}

			}
, 			{
				"box" : 				{
					"fontname" : "Century Gothic",
					"fontsize" : 12.0,
					"hidden" : 1,
					"id" : "obj-14",
					"maxclass" : "message",
					"numinlets" : 2,
					"numoutlets" : 1,
					"outlettype" : [ "" ],
					"patching_rect" : [ 198.0, 54.0, 32.5, 19.0 ],
					"text" : "0.1"
				}

			}
, 			{
				"box" : 				{
					"fontname" : "Century Gothic",
					"fontsize" : 12.0,
					"frgb" : 0.0,
					"id" : "obj-12",
					"maxclass" : "comment",
					"numinlets" : 1,
					"numoutlets" : 0,
					"patching_rect" : [ 82.0, 275.0, 135.0, 21.0 ],
					"text" : "Breathing rate (bpm)"
				}

			}
, 			{
				"box" : 				{
					"fontname" : "Century Gothic",
					"fontsize" : 12.0,
					"id" : "obj-3",
					"maxclass" : "newobj",
					"numinlets" : 2,
					"numoutlets" : 1,
					"outlettype" : [ "float" ],
					"patching_rect" : [ 32.0, 161.0, 94.0, 21.0 ],
					"text" : "dot.smooth 44"
				}

			}
, 			{
				"box" : 				{
					"fontname" : "Century Gothic",
					"fontsize" : 12.0,
					"id" : "obj-9",
					"maxclass" : "flonum",
					"numinlets" : 1,
					"numoutlets" : 2,
					"outlettype" : [ "float", "bang" ],
					"parameter_enable" : 0,
					"patching_rect" : [ 73.0, 105.0, 50.0, 21.0 ]
				}

			}
, 			{
				"box" : 				{
					"fontname" : "Century Gothic",
					"fontsize" : 12.0,
					"id" : "obj-7",
					"maxclass" : "newobj",
					"numinlets" : 2,
					"numoutlets" : 1,
					"outlettype" : [ "float" ],
					"patching_rect" : [ 32.0, 134.0, 60.0, 21.0 ],
					"text" : "onepole"
				}

			}
, 			{
				"box" : 				{
					"fontname" : "Century Gothic",
					"fontsize" : 12.0,
					"hidden" : 1,
					"id" : "obj-10",
					"maxclass" : "message",
					"numinlets" : 2,
					"numoutlets" : 1,
					"outlettype" : [ "" ],
					"patching_rect" : [ 340.75, 51.0, 37.0, 19.0 ],
					"text" : "1500"
				}

			}
, 			{
				"box" : 				{
					"fontname" : "Century Gothic",
					"fontsize" : 12.0,
					"hidden" : 1,
					"id" : "obj-6",
					"maxclass" : "message",
					"numinlets" : 2,
					"numoutlets" : 1,
					"outlettype" : [ "" ],
					"patching_rect" : [ 32.0, 51.0, 32.5, 19.0 ],
					"text" : "3"
				}

			}
, 			{
				"box" : 				{
					"fontname" : "Century Gothic",
					"fontsize" : 12.0,
					"frgb" : 0.0,
					"hidden" : 1,
					"id" : "obj-45",
					"maxclass" : "comment",
					"numinlets" : 1,
					"numoutlets" : 0,
					"patching_rect" : [ 358.25, 78.0, 37.0, 21.0 ],
					"text" : "MAX"
				}

			}
, 			{
				"box" : 				{
					"fontname" : "Century Gothic",
					"fontsize" : 12.0,
					"frgb" : 0.0,
					"hidden" : 1,
					"id" : "obj-44",
					"maxclass" : "comment",
					"numinlets" : 1,
					"numoutlets" : 0,
					"patching_rect" : [ 326.25, 78.0, 32.0, 21.0 ],
					"text" : "MIN"
				}

			}
, 			{
				"box" : 				{
					"fontname" : "Century Gothic",
					"fontsize" : 12.0,
					"hidden" : 1,
					"id" : "obj-42",
					"maxclass" : "newobj",
					"numinlets" : 1,
					"numoutlets" : 1,
					"outlettype" : [ "" ],
					"patching_rect" : [ 226.25, 129.0, 100.0, 21.0 ],
					"text" : "prepend range"
				}

			}
, 			{
				"box" : 				{
					"fontname" : "Century Gothic",
					"fontsize" : 12.0,
					"hidden" : 1,
					"id" : "obj-55",
					"maxclass" : "flonum",
					"numinlets" : 1,
					"numoutlets" : 2,
					"outlettype" : [ "float", "bang" ],
					"parameter_enable" : 0,
					"patching_rect" : [ 276.25, 78.0, 50.0, 21.0 ]
				}

			}
, 			{
				"box" : 				{
					"fontname" : "Century Gothic",
					"fontsize" : 12.0,
					"hidden" : 1,
					"id" : "obj-39",
					"maxclass" : "flonum",
					"numinlets" : 1,
					"numoutlets" : 2,
					"outlettype" : [ "float", "bang" ],
					"parameter_enable" : 0,
					"patching_rect" : [ 226.25, 78.0, 50.0, 21.0 ]
				}

			}
, 			{
				"box" : 				{
					"fontname" : "Century Gothic",
					"fontsize" : 12.0,
					"hidden" : 1,
					"id" : "obj-36",
					"maxclass" : "newobj",
					"numinlets" : 2,
					"numoutlets" : 1,
					"outlettype" : [ "" ],
					"patching_rect" : [ 226.25, 105.0, 47.0, 21.0 ],
					"text" : "pak f f"
				}

			}
, 			{
				"box" : 				{
					"fontname" : "Century Gothic",
					"fontsize" : 12.0,
					"hidden" : 1,
					"id" : "obj-2",
					"maxclass" : "newobj",
					"numinlets" : 1,
					"numoutlets" : 1,
					"outlettype" : [ "bang" ],
					"patching_rect" : [ 65.0, 22.0, 69.0, 21.0 ],
					"text" : "loadbang"
				}

			}
, 			{
				"box" : 				{
					"fontname" : "Century Gothic",
					"fontsize" : 12.0,
					"hidden" : 1,
					"id" : "obj-8",
					"maxclass" : "message",
					"numinlets" : 2,
					"numoutlets" : 1,
					"outlettype" : [ "" ],
					"patching_rect" : [ 65.0, 51.0, 152.0, 19.0 ],
					"text" : "read respirationSignal.txt"
				}

			}
, 			{
				"box" : 				{
					"fontname" : "Century Gothic",
					"fontsize" : 12.0,
					"id" : "obj-5",
					"maxclass" : "newobj",
					"numinlets" : 4,
					"numoutlets" : 1,
					"outlettype" : [ "" ],
					"patching_rect" : [ 32.0, 78.0, 118.0, 21.0 ],
					"text" : "biotoolkit.textData"
				}

			}
, 			{
				"box" : 				{
					"fontname" : "Century Gothic",
					"fontsize" : 12.0,
					"id" : "obj-1",
					"maxclass" : "newobj",
					"numinlets" : 2,
					"numoutlets" : 1,
					"outlettype" : [ "bang" ],
					"patching_rect" : [ 32.0, 201.0, 125.0, 21.0 ],
					"text" : "biotoolkit.respOnset"
				}

			}
, 			{
				"box" : 				{
					"fontname" : "Arial",
					"fontsize" : 10.0,
					"frgb" : 0.0,
					"id" : "obj-124",
					"linecount" : 3,
					"maxclass" : "comment",
					"numinlets" : 1,
					"numoutlets" : 0,
					"patching_rect" : [ 298.25, 311.0, 167.0, 40.0 ],
					"presentation" : 1,
					"presentation_linecount" : 3,
					"presentation_rect" : [ 975.0, 644.0, 161.0, 40.0 ],
					"text" : "Joe Plazak\nChris Salter\nwww.github.com/jplazak/biotoolkit",
					"textjustification" : 2
				}

			}
, 			{
				"box" : 				{
					"fontname" : "Arial",
					"fontsize" : 14.0,
					"frgb" : 0.0,
					"id" : "obj-16",
					"maxclass" : "comment",
					"numinlets" : 1,
					"numoutlets" : 0,
					"patching_rect" : [ 9.25, 48.0, 484.0, 22.0 ],
					"text" : "Calculates breathing rate (in beats per minute)"
				}

			}
, 			{
				"box" : 				{
					"fontface" : 3,
					"fontname" : "Arial",
					"fontsize" : 20.871338,
					"frgb" : 0.0,
					"id" : "obj-22",
					"maxclass" : "comment",
					"numinlets" : 1,
					"numoutlets" : 0,
					"patching_rect" : [ 9.25, 11.0, 485.0, 30.0 ],
					"text" : "biotoolkit.respRate",
					"textcolor" : [ 1.0, 1.0, 1.0, 1.0 ],
					"varname" : "autohelp_top_title"
				}

			}
, 			{
				"box" : 				{
					"bgcolor" : [ 0.0, 0.0, 0.0, 1.0 ],
					"id" : "obj-60",
					"maxclass" : "panel",
					"numinlets" : 1,
					"numoutlets" : 0,
					"patching_rect" : [ 476.25, 11.0, 4.0, 333.0 ]
				}

			}
, 			{
				"box" : 				{
					"background" : 1,
					"contdata" : 1,
					"drawpeaks" : 1,
					"id" : "obj-32",
					"ignoreclick" : 1,
					"maxclass" : "multislider",
					"numinlets" : 1,
					"numoutlets" : 2,
					"outlettype" : [ "", "" ],
					"parameter_enable" : 0,
					"patching_rect" : [ 226.25, 198.0, 239.0, 107.0 ],
					"setminmax" : [ 920.0, 4009.0 ],
					"setstyle" : 5,
					"slidercolor" : [ 0.4, 0.8, 1.0, 1.0 ]
				}

			}
, 			{
				"box" : 				{
					"angle" : 180.0,
					"background" : 1,
					"grad1" : [ 0.0, 0.0, 0.0, 1.0 ],
					"grad2" : [ 0.25098, 0.501961, 0.0, 1.0 ],
					"id" : "obj-17",
					"maxclass" : "panel",
					"mode" : 1,
					"numinlets" : 1,
					"numoutlets" : 0,
					"patching_rect" : [ 9.25, 11.0, 471.0, 30.0 ],
					"varname" : "autohelp_top_panel[1]"
				}

			}
 ],
		"lines" : [ 			{
				"patchline" : 				{
					"destination" : [ "obj-4", 0 ],
					"disabled" : 0,
					"hidden" : 0,
					"source" : [ "obj-1", 0 ]
				}

			}
, 			{
				"patchline" : 				{
					"destination" : [ "obj-5", 3 ],
					"disabled" : 0,
					"hidden" : 1,
					"midpoints" : [ 350.25, 73.0, 140.5, 73.0 ],
					"source" : [ "obj-10", 0 ]
				}

			}
, 			{
				"patchline" : 				{
					"destination" : [ "obj-9", 0 ],
					"disabled" : 0,
					"hidden" : 1,
					"midpoints" : [ 207.5, 102.0, 82.5, 102.0 ],
					"source" : [ "obj-14", 0 ]
				}

			}
, 			{
				"patchline" : 				{
					"destination" : [ "obj-10", 0 ],
					"disabled" : 0,
					"hidden" : 1,
					"midpoints" : [ 74.5, 45.0, 61.0, 45.0, 61.0, 44.0, 350.25, 44.0 ],
					"source" : [ "obj-2", 0 ]
				}

			}
, 			{
				"patchline" : 				{
					"destination" : [ "obj-14", 0 ],
					"disabled" : 0,
					"hidden" : 1,
					"source" : [ "obj-2", 0 ]
				}

			}
, 			{
				"patchline" : 				{
					"destination" : [ "obj-6", 0 ],
					"disabled" : 0,
					"hidden" : 1,
					"source" : [ "obj-2", 0 ]
				}

			}
, 			{
				"patchline" : 				{
					"destination" : [ "obj-8", 0 ],
					"disabled" : 0,
					"hidden" : 1,
					"source" : [ "obj-2", 0 ]
				}

			}
, 			{
				"patchline" : 				{
					"destination" : [ "obj-1", 1 ],
					"disabled" : 0,
					"hidden" : 0,
					"source" : [ "obj-23", 0 ]
				}

			}
, 			{
				"patchline" : 				{
					"destination" : [ "obj-1", 0 ],
					"disabled" : 0,
					"hidden" : 0,
					"source" : [ "obj-3", 0 ]
				}

			}
, 			{
				"patchline" : 				{
					"destination" : [ "obj-32", 0 ],
					"disabled" : 0,
					"hidden" : 0,
					"midpoints" : [ 41.5, 187.0, 235.75, 187.0 ],
					"source" : [ "obj-3", 0 ]
				}

			}
, 			{
				"patchline" : 				{
					"destination" : [ "obj-42", 0 ],
					"disabled" : 0,
					"hidden" : 1,
					"source" : [ "obj-36", 0 ]
				}

			}
, 			{
				"patchline" : 				{
					"destination" : [ "obj-36", 0 ],
					"disabled" : 0,
					"hidden" : 1,
					"source" : [ "obj-39", 0 ]
				}

			}
, 			{
				"patchline" : 				{
					"destination" : [ "obj-13", 0 ],
					"disabled" : 0,
					"hidden" : 0,
					"source" : [ "obj-4", 0 ]
				}

			}
, 			{
				"patchline" : 				{
					"destination" : [ "obj-32", 0 ],
					"disabled" : 0,
					"hidden" : 1,
					"midpoints" : [ 235.75, 150.0, 235.75, 150.0 ],
					"source" : [ "obj-42", 0 ]
				}

			}
, 			{
				"patchline" : 				{
					"destination" : [ "obj-7", 0 ],
					"disabled" : 0,
					"hidden" : 0,
					"midpoints" : [ 41.5, 114.0, 41.5, 114.0 ],
					"source" : [ "obj-5", 0 ]
				}

			}
, 			{
				"patchline" : 				{
					"destination" : [ "obj-36", 1 ],
					"disabled" : 0,
					"hidden" : 1,
					"midpoints" : [ 285.75, 100.5, 263.75, 100.5 ],
					"source" : [ "obj-55", 0 ]
				}

			}
, 			{
				"patchline" : 				{
					"destination" : [ "obj-5", 0 ],
					"disabled" : 0,
					"hidden" : 1,
					"source" : [ "obj-6", 0 ]
				}

			}
, 			{
				"patchline" : 				{
					"destination" : [ "obj-3", 0 ],
					"disabled" : 0,
					"hidden" : 0,
					"source" : [ "obj-7", 0 ]
				}

			}
, 			{
				"patchline" : 				{
					"destination" : [ "obj-5", 1 ],
					"disabled" : 0,
					"hidden" : 1,
					"source" : [ "obj-8", 0 ]
				}

			}
, 			{
				"patchline" : 				{
					"destination" : [ "obj-7", 1 ],
					"disabled" : 0,
					"hidden" : 0,
					"source" : [ "obj-9", 0 ]
				}

			}
 ],
		"dependency_cache" : [ 			{
				"name" : "biotoolkit.respOnset.maxpat",
				"bootpath" : "/Applications/Max 6.1/externals/BioSignalToolkit/alphaRelease/Lungs/biotoolkit.respOnset",
				"patcherrelativepath" : "../biotoolkit.respOnset",
				"type" : "JSON",
				"implicit" : 1
			}
, 			{
				"name" : "dot.std.maxpat",
				"bootpath" : "/Applications/Max 6.1/externals/dot_20121204/statistics/dot.std",
				"patcherrelativepath" : "../../../../dot_20121204/statistics/dot.std",
				"type" : "JSON",
				"implicit" : 1
			}
, 			{
				"name" : "biotoolkit.textData.maxpat",
				"bootpath" : "/Applications/Max 6.1/externals/BioSignalToolkit/alphaRelease/Glue/biotoolkit.textData",
				"patcherrelativepath" : "../../Glue/biotoolkit.textData",
				"type" : "JSON",
				"implicit" : 1
			}
, 			{
				"name" : "onepole.maxpat",
				"bootpath" : "/Applications/Max 6.1/examples/CNMAT-Everything-OSX-MachO/CNMAT_MMJ-Depot/modules/Data_Transformation",
				"patcherrelativepath" : "../../../../../examples/CNMAT-Everything-OSX-MachO/CNMAT_MMJ-Depot/modules/Data_Transformation",
				"type" : "JSON",
				"implicit" : 1
			}
, 			{
				"name" : "badge.maxpat",
				"bootpath" : "/Applications/Max 6.1/examples/CNMAT-Everything-OSX-MachO/CNMAT_MMJ-Depot/modules/Depot_Support",
				"patcherrelativepath" : "../../../../../examples/CNMAT-Everything-OSX-MachO/CNMAT_MMJ-Depot/modules/Depot_Support",
				"type" : "JSON",
				"implicit" : 1
			}
, 			{
				"name" : "uc_license.maxpat",
				"bootpath" : "/Applications/Max 6.1/examples/CNMAT-Everything-OSX-MachO/CNMAT_MMJ-Depot/modules/Depot_Support",
				"patcherrelativepath" : "../../../../../examples/CNMAT-Everything-OSX-MachO/CNMAT_MMJ-Depot/modules/Depot_Support",
				"type" : "JSON",
				"implicit" : 1
			}
, 			{
				"name" : "cnmat_blue.gif",
				"bootpath" : "/Applications/Max 6.1/examples/CNMAT-Everything-OSX-MachO/CNMAT_MMJ-Depot/modules/Depot_Support",
				"patcherrelativepath" : "../../../../../examples/CNMAT-Everything-OSX-MachO/CNMAT_MMJ-Depot/modules/Depot_Support",
				"type" : "GIFf",
				"implicit" : 1
			}
, 			{
				"name" : "myNotes.js",
				"bootpath" : "/Applications/Max 6.1/examples/CNMAT-Everything-OSX-MachO/CNMAT_MMJ-Depot/modules/Depot_Support",
				"patcherrelativepath" : "../../../../../examples/CNMAT-Everything-OSX-MachO/CNMAT_MMJ-Depot/modules/Depot_Support",
				"type" : "TEXT",
				"implicit" : 1
			}
, 			{
				"name" : "take_notes.maxpat",
				"bootpath" : "/Applications/Max 6.1/examples/CNMAT-Everything-OSX-MachO/CNMAT_MMJ-Depot/modules/Depot_Support",
				"patcherrelativepath" : "../../../../../examples/CNMAT-Everything-OSX-MachO/CNMAT_MMJ-Depot/modules/Depot_Support",
				"type" : "JSON",
				"implicit" : 1
			}
, 			{
				"name" : "dot.smooth.maxpat",
				"bootpath" : "/Applications/Max 6.1/externals/dot_20121204/filters/dot.smooth",
				"patcherrelativepath" : "../../../../dot_20121204/filters/dot.smooth",
				"type" : "JSON",
				"implicit" : 1
			}
, 			{
				"name" : "biotoolkit.respRate.maxpat",
				"bootpath" : "/Applications/Max 6.1/externals/BioSignalToolkit/alphaRelease/Lungs/biotoolkit.respRate",
				"patcherrelativepath" : ".",
				"type" : "JSON",
				"implicit" : 1
			}
 ]
	}

}
