{
	"patcher" : 	{
		"fileversion" : 1,
		"appversion" : 		{
			"major" : 6,
			"minor" : 1,
			"revision" : 9,
			"architecture" : "x86"
		}
,
		"rect" : [ 25.0, 70.0, 504.0, 353.0 ],
		"bglocked" : 0,
		"openinpresentation" : 0,
		"default_fontsize" : 12.0,
		"default_fontface" : 0,
		"default_fontname" : "Century Gothic",
		"gridonopen" : 0,
		"gridsize" : [ 15.0, 15.0 ],
		"gridsnaponopen" : 0,
		"statusbarvisible" : 2,
		"toolbarvisible" : 1,
		"boxanimatetime" : 200,
		"imprint" : 0,
		"enablehscroll" : 1,
		"enablevscroll" : 1,
		"devicewidth" : 0.0,
		"description" : "",
		"digest" : "",
		"tags" : "",
		"boxes" : [ 			{
				"box" : 				{
					"fontname" : "Century Gothic",
					"fontsize" : 12.0,
					"id" : "obj-23",
					"maxclass" : "message",
					"numinlets" : 2,
					"numoutlets" : 1,
					"outlettype" : [ "" ],
					"patching_rect" : [ 142.0, 160.0, 40.0, 19.0 ],
					"text" : "clear"
				}

			}
, 			{
				"box" : 				{
					"blinkcolor" : [ 0.0, 0.501961, 1.0, 1.0 ],
					"id" : "obj-13",
					"maxclass" : "button",
					"numinlets" : 1,
					"numoutlets" : 1,
					"outlettype" : [ "bang" ],
					"patching_rect" : [ 36.0, 230.0, 54.0, 54.0 ]
				}

			}
, 			{
				"box" : 				{
					"fontname" : "Century Gothic",
					"fontsize" : 12.0,
					"hidden" : 1,
					"id" : "obj-14",
					"maxclass" : "message",
					"numinlets" : 2,
					"numoutlets" : 1,
					"outlettype" : [ "" ],
					"patching_rect" : [ 202.0, 53.0, 32.5, 19.0 ],
					"text" : "0.1"
				}

			}
, 			{
				"box" : 				{
					"fontname" : "Century Gothic",
					"fontsize" : 12.0,
					"frgb" : 0.0,
					"id" : "obj-12",
					"maxclass" : "comment",
					"numinlets" : 1,
					"numoutlets" : 0,
					"patching_rect" : [ 92.0, 254.0, 103.0, 21.0 ],
					"text" : "Breath onset"
				}

			}
, 			{
				"box" : 				{
					"fontname" : "Century Gothic",
					"fontsize" : 12.0,
					"id" : "obj-3",
					"maxclass" : "newobj",
					"numinlets" : 2,
					"numoutlets" : 1,
					"outlettype" : [ "float" ],
					"patching_rect" : [ 36.0, 160.0, 94.0, 21.0 ],
					"text" : "dot.smooth 44"
				}

			}
, 			{
				"box" : 				{
					"fontname" : "Century Gothic",
					"fontsize" : 12.0,
					"id" : "obj-9",
					"maxclass" : "flonum",
					"numinlets" : 1,
					"numoutlets" : 2,
					"outlettype" : [ "float", "bang" ],
					"parameter_enable" : 0,
					"patching_rect" : [ 77.0, 104.0, 50.0, 21.0 ]
				}

			}
, 			{
				"box" : 				{
					"fontname" : "Century Gothic",
					"fontsize" : 12.0,
					"id" : "obj-7",
					"maxclass" : "newobj",
					"numinlets" : 2,
					"numoutlets" : 1,
					"outlettype" : [ "float" ],
					"patching_rect" : [ 36.0, 133.0, 60.0, 21.0 ],
					"text" : "onepole"
				}

			}
, 			{
				"box" : 				{
					"fontname" : "Century Gothic",
					"fontsize" : 12.0,
					"hidden" : 1,
					"id" : "obj-10",
					"maxclass" : "message",
					"numinlets" : 2,
					"numoutlets" : 1,
					"outlettype" : [ "" ],
					"patching_rect" : [ 344.75, 50.0, 37.0, 19.0 ],
					"text" : "1500"
				}

			}
, 			{
				"box" : 				{
					"fontname" : "Century Gothic",
					"fontsize" : 12.0,
					"hidden" : 1,
					"id" : "obj-6",
					"maxclass" : "message",
					"numinlets" : 2,
					"numoutlets" : 1,
					"outlettype" : [ "" ],
					"patching_rect" : [ 36.0, 50.0, 32.5, 19.0 ],
					"text" : "3"
				}

			}
, 			{
				"box" : 				{
					"fontname" : "Century Gothic",
					"fontsize" : 12.0,
					"frgb" : 0.0,
					"hidden" : 1,
					"id" : "obj-45",
					"maxclass" : "comment",
					"numinlets" : 1,
					"numoutlets" : 0,
					"patching_rect" : [ 362.25, 77.0, 37.0, 21.0 ],
					"text" : "MAX"
				}

			}
, 			{
				"box" : 				{
					"fontname" : "Century Gothic",
					"fontsize" : 12.0,
					"frgb" : 0.0,
					"hidden" : 1,
					"id" : "obj-44",
					"maxclass" : "comment",
					"numinlets" : 1,
					"numoutlets" : 0,
					"patching_rect" : [ 330.25, 77.0, 32.0, 21.0 ],
					"text" : "MIN"
				}

			}
, 			{
				"box" : 				{
					"fontname" : "Century Gothic",
					"fontsize" : 12.0,
					"hidden" : 1,
					"id" : "obj-42",
					"maxclass" : "newobj",
					"numinlets" : 1,
					"numoutlets" : 1,
					"outlettype" : [ "" ],
					"patching_rect" : [ 230.25, 128.0, 100.0, 21.0 ],
					"text" : "prepend range"
				}

			}
, 			{
				"box" : 				{
					"fontname" : "Century Gothic",
					"fontsize" : 12.0,
					"hidden" : 1,
					"id" : "obj-55",
					"maxclass" : "flonum",
					"numinlets" : 1,
					"numoutlets" : 2,
					"outlettype" : [ "float", "bang" ],
					"parameter_enable" : 0,
					"patching_rect" : [ 280.25, 77.0, 50.0, 21.0 ]
				}

			}
, 			{
				"box" : 				{
					"fontname" : "Century Gothic",
					"fontsize" : 12.0,
					"hidden" : 1,
					"id" : "obj-39",
					"maxclass" : "flonum",
					"numinlets" : 1,
					"numoutlets" : 2,
					"outlettype" : [ "float", "bang" ],
					"parameter_enable" : 0,
					"patching_rect" : [ 230.25, 77.0, 50.0, 21.0 ]
				}

			}
, 			{
				"box" : 				{
					"fontname" : "Century Gothic",
					"fontsize" : 12.0,
					"hidden" : 1,
					"id" : "obj-36",
					"maxclass" : "newobj",
					"numinlets" : 2,
					"numoutlets" : 1,
					"outlettype" : [ "" ],
					"patching_rect" : [ 230.25, 104.0, 47.0, 21.0 ],
					"text" : "pak f f"
				}

			}
, 			{
				"box" : 				{
					"fontname" : "Century Gothic",
					"fontsize" : 12.0,
					"hidden" : 1,
					"id" : "obj-2",
					"maxclass" : "newobj",
					"numinlets" : 1,
					"numoutlets" : 1,
					"outlettype" : [ "bang" ],
					"patching_rect" : [ 69.0, 21.0, 69.0, 21.0 ],
					"text" : "loadbang"
				}

			}
, 			{
				"box" : 				{
					"fontname" : "Century Gothic",
					"fontsize" : 12.0,
					"hidden" : 1,
					"id" : "obj-8",
					"maxclass" : "message",
					"numinlets" : 2,
					"numoutlets" : 1,
					"outlettype" : [ "" ],
					"patching_rect" : [ 69.0, 50.0, 152.0, 19.0 ],
					"text" : "read respirationSignal.txt"
				}

			}
, 			{
				"box" : 				{
					"fontname" : "Century Gothic",
					"fontsize" : 12.0,
					"id" : "obj-5",
					"maxclass" : "newobj",
					"numinlets" : 4,
					"numoutlets" : 1,
					"outlettype" : [ "" ],
					"patching_rect" : [ 36.0, 77.0, 118.0, 21.0 ],
					"text" : "biotoolkit.textData"
				}

			}
, 			{
				"box" : 				{
					"fontname" : "Century Gothic",
					"fontsize" : 12.0,
					"id" : "obj-1",
					"maxclass" : "newobj",
					"numinlets" : 2,
					"numoutlets" : 1,
					"outlettype" : [ "bang" ],
					"patching_rect" : [ 36.0, 200.0, 125.0, 21.0 ],
					"text" : "biotoolkit.respOnset"
				}

			}
, 			{
				"box" : 				{
					"fontname" : "Arial",
					"fontsize" : 10.0,
					"frgb" : 0.0,
					"id" : "obj-124",
					"linecount" : 3,
					"maxclass" : "comment",
					"numinlets" : 1,
					"numoutlets" : 0,
					"patching_rect" : [ 302.25, 310.0, 167.0, 40.0 ],
					"presentation" : 1,
					"presentation_linecount" : 3,
					"presentation_rect" : [ 960.0, 629.0, 161.0, 40.0 ],
					"text" : "Joe Plazak\nChris Salter\nwww.github.com/jplazak/biotoolkit",
					"textjustification" : 2
				}

			}
, 			{
				"box" : 				{
					"fontname" : "Arial",
					"fontsize" : 14.0,
					"frgb" : 0.0,
					"id" : "obj-16",
					"maxclass" : "comment",
					"numinlets" : 1,
					"numoutlets" : 0,
					"patching_rect" : [ 13.25, 47.0, 484.0, 22.0 ],
					"text" : "Identifies the onset of each breath (self-normalizing)"
				}

			}
, 			{
				"box" : 				{
					"fontface" : 3,
					"fontname" : "Arial",
					"fontsize" : 20.871338,
					"frgb" : 0.0,
					"id" : "obj-22",
					"maxclass" : "comment",
					"numinlets" : 1,
					"numoutlets" : 0,
					"patching_rect" : [ 13.25, 10.0, 485.0, 30.0 ],
					"text" : "biotoolkit.respOnset",
					"textcolor" : [ 1.0, 1.0, 1.0, 1.0 ],
					"varname" : "autohelp_top_title"
				}

			}
, 			{
				"box" : 				{
					"bgcolor" : [ 0.0, 0.0, 0.0, 1.0 ],
					"id" : "obj-60",
					"maxclass" : "panel",
					"numinlets" : 1,
					"numoutlets" : 0,
					"patching_rect" : [ 480.25, 10.0, 4.0, 333.0 ]
				}

			}
, 			{
				"box" : 				{
					"background" : 1,
					"contdata" : 1,
					"drawpeaks" : 1,
					"id" : "obj-32",
					"ignoreclick" : 1,
					"maxclass" : "multislider",
					"numinlets" : 1,
					"numoutlets" : 2,
					"outlettype" : [ "", "" ],
					"parameter_enable" : 0,
					"patching_rect" : [ 230.25, 197.0, 239.0, 107.0 ],
					"setminmax" : [ 920.0, 4009.0 ],
					"setstyle" : 5,
					"slidercolor" : [ 0.4, 0.8, 1.0, 1.0 ]
				}

			}
, 			{
				"box" : 				{
					"angle" : 180.0,
					"background" : 1,
					"grad1" : [ 0.0, 0.0, 0.0, 1.0 ],
					"grad2" : [ 0.25098, 0.501961, 0.0, 1.0 ],
					"id" : "obj-17",
					"maxclass" : "panel",
					"mode" : 1,
					"numinlets" : 1,
					"numoutlets" : 0,
					"patching_rect" : [ 13.25, 10.0, 471.0, 30.0 ],
					"varname" : "autohelp_top_panel[1]"
				}

			}
 ],
		"lines" : [ 			{
				"patchline" : 				{
					"destination" : [ "obj-13", 0 ],
					"disabled" : 0,
					"hidden" : 0,
					"source" : [ "obj-1", 0 ]
				}

			}
, 			{
				"patchline" : 				{
					"destination" : [ "obj-5", 3 ],
					"disabled" : 0,
					"hidden" : 1,
					"midpoints" : [ 354.25, 72.0, 144.5, 72.0 ],
					"source" : [ "obj-10", 0 ]
				}

			}
, 			{
				"patchline" : 				{
					"destination" : [ "obj-9", 0 ],
					"disabled" : 0,
					"hidden" : 1,
					"midpoints" : [ 211.5, 101.0, 86.5, 101.0 ],
					"source" : [ "obj-14", 0 ]
				}

			}
, 			{
				"patchline" : 				{
					"destination" : [ "obj-10", 0 ],
					"disabled" : 0,
					"hidden" : 1,
					"midpoints" : [ 78.5, 44.0, 65.0, 44.0, 65.0, 43.0, 354.25, 43.0 ],
					"source" : [ "obj-2", 0 ]
				}

			}
, 			{
				"patchline" : 				{
					"destination" : [ "obj-14", 0 ],
					"disabled" : 0,
					"hidden" : 1,
					"source" : [ "obj-2", 0 ]
				}

			}
, 			{
				"patchline" : 				{
					"destination" : [ "obj-6", 0 ],
					"disabled" : 0,
					"hidden" : 1,
					"source" : [ "obj-2", 0 ]
				}

			}
, 			{
				"patchline" : 				{
					"destination" : [ "obj-8", 0 ],
					"disabled" : 0,
					"hidden" : 1,
					"source" : [ "obj-2", 0 ]
				}

			}
, 			{
				"patchline" : 				{
					"destination" : [ "obj-1", 1 ],
					"disabled" : 0,
					"hidden" : 0,
					"source" : [ "obj-23", 0 ]
				}

			}
, 			{
				"patchline" : 				{
					"destination" : [ "obj-1", 0 ],
					"disabled" : 0,
					"hidden" : 0,
					"source" : [ "obj-3", 0 ]
				}

			}
, 			{
				"patchline" : 				{
					"destination" : [ "obj-32", 0 ],
					"disabled" : 0,
					"hidden" : 0,
					"midpoints" : [ 45.5, 186.0, 239.75, 186.0 ],
					"source" : [ "obj-3", 0 ]
				}

			}
, 			{
				"patchline" : 				{
					"destination" : [ "obj-42", 0 ],
					"disabled" : 0,
					"hidden" : 1,
					"source" : [ "obj-36", 0 ]
				}

			}
, 			{
				"patchline" : 				{
					"destination" : [ "obj-36", 0 ],
					"disabled" : 0,
					"hidden" : 1,
					"source" : [ "obj-39", 0 ]
				}

			}
, 			{
				"patchline" : 				{
					"destination" : [ "obj-32", 0 ],
					"disabled" : 0,
					"hidden" : 1,
					"midpoints" : [ 239.75, 149.0, 239.75, 149.0 ],
					"source" : [ "obj-42", 0 ]
				}

			}
, 			{
				"patchline" : 				{
					"destination" : [ "obj-7", 0 ],
					"disabled" : 0,
					"hidden" : 0,
					"midpoints" : [ 45.5, 113.0, 45.5, 113.0 ],
					"source" : [ "obj-5", 0 ]
				}

			}
, 			{
				"patchline" : 				{
					"destination" : [ "obj-36", 1 ],
					"disabled" : 0,
					"hidden" : 1,
					"midpoints" : [ 289.75, 99.5, 267.75, 99.5 ],
					"source" : [ "obj-55", 0 ]
				}

			}
, 			{
				"patchline" : 				{
					"destination" : [ "obj-5", 0 ],
					"disabled" : 0,
					"hidden" : 1,
					"source" : [ "obj-6", 0 ]
				}

			}
, 			{
				"patchline" : 				{
					"destination" : [ "obj-3", 0 ],
					"disabled" : 0,
					"hidden" : 0,
					"source" : [ "obj-7", 0 ]
				}

			}
, 			{
				"patchline" : 				{
					"destination" : [ "obj-5", 1 ],
					"disabled" : 0,
					"hidden" : 1,
					"source" : [ "obj-8", 0 ]
				}

			}
, 			{
				"patchline" : 				{
					"destination" : [ "obj-7", 1 ],
					"disabled" : 0,
					"hidden" : 0,
					"source" : [ "obj-9", 0 ]
				}

			}
 ],
		"dependency_cache" : [ 			{
				"name" : "biotoolkit.respOnset.maxpat",
				"bootpath" : "/Applications/Max 6.1/externals/BioSignalToolkit/alphaRelease/Lungs/biotoolkit.respOnset",
				"patcherrelativepath" : ".",
				"type" : "JSON",
				"implicit" : 1
			}
, 			{
				"name" : "dot.std.maxpat",
				"bootpath" : "/Applications/Max 6.1/externals/dot_20121204/statistics/dot.std",
				"patcherrelativepath" : "../../../../dot_20121204/statistics/dot.std",
				"type" : "JSON",
				"implicit" : 1
			}
, 			{
				"name" : "biotoolkit.textData.maxpat",
				"bootpath" : "/Applications/Max 6.1/externals/BioSignalToolkit/alphaRelease/Glue/biotoolkit.textData",
				"patcherrelativepath" : "../../Glue/biotoolkit.textData",
				"type" : "JSON",
				"implicit" : 1
			}
, 			{
				"name" : "onepole.maxpat",
				"bootpath" : "/Applications/Max 6.1/examples/CNMAT-Everything-OSX-MachO/CNMAT_MMJ-Depot/modules/Data_Transformation",
				"patcherrelativepath" : "../../../../../examples/CNMAT-Everything-OSX-MachO/CNMAT_MMJ-Depot/modules/Data_Transformation",
				"type" : "JSON",
				"implicit" : 1
			}
, 			{
				"name" : "badge.maxpat",
				"bootpath" : "/Applications/Max 6.1/examples/CNMAT-Everything-OSX-MachO/CNMAT_MMJ-Depot/modules/Depot_Support",
				"patcherrelativepath" : "../../../../../examples/CNMAT-Everything-OSX-MachO/CNMAT_MMJ-Depot/modules/Depot_Support",
				"type" : "JSON",
				"implicit" : 1
			}
, 			{
				"name" : "uc_license.maxpat",
				"bootpath" : "/Applications/Max 6.1/examples/CNMAT-Everything-OSX-MachO/CNMAT_MMJ-Depot/modules/Depot_Support",
				"patcherrelativepath" : "../../../../../examples/CNMAT-Everything-OSX-MachO/CNMAT_MMJ-Depot/modules/Depot_Support",
				"type" : "JSON",
				"implicit" : 1
			}
, 			{
				"name" : "cnmat_blue.gif",
				"bootpath" : "/Applications/Max 6.1/examples/CNMAT-Everything-OSX-MachO/CNMAT_MMJ-Depot/modules/Depot_Support",
				"patcherrelativepath" : "../../../../../examples/CNMAT-Everything-OSX-MachO/CNMAT_MMJ-Depot/modules/Depot_Support",
				"type" : "GIFf",
				"implicit" : 1
			}
, 			{
				"name" : "myNotes.js",
				"bootpath" : "/Applications/Max 6.1/examples/CNMAT-Everything-OSX-MachO/CNMAT_MMJ-Depot/modules/Depot_Support",
				"patcherrelativepath" : "../../../../../examples/CNMAT-Everything-OSX-MachO/CNMAT_MMJ-Depot/modules/Depot_Support",
				"type" : "TEXT",
				"implicit" : 1
			}
, 			{
				"name" : "take_notes.maxpat",
				"bootpath" : "/Applications/Max 6.1/examples/CNMAT-Everything-OSX-MachO/CNMAT_MMJ-Depot/modules/Depot_Support",
				"patcherrelativepath" : "../../../../../examples/CNMAT-Everything-OSX-MachO/CNMAT_MMJ-Depot/modules/Depot_Support",
				"type" : "JSON",
				"implicit" : 1
			}
, 			{
				"name" : "dot.smooth.maxpat",
				"bootpath" : "/Applications/Max 6.1/externals/dot_20121204/filters/dot.smooth",
				"patcherrelativepath" : "../../../../dot_20121204/filters/dot.smooth",
				"type" : "JSON",
				"implicit" : 1
			}
 ]
	}

}
